<mxfile host="app.diagrams.net" modified="2023-08-04T17:29:15.355Z" agent="Mozilla/5.0 (Windows NT 10.0; Win64; x64) AppleWebKit/537.36 (KHTML, like Gecko) Chrome/115.0.0.0 Safari/537.36" etag="NySb8xamHjkcLqlwLezN" version="21.6.6" type="device">
  <diagram id="LvRMg244iV2JqfVmVC3u" name="Страница 1">
    <mxGraphModel dx="2471" dy="785" grid="1" gridSize="10" guides="1" tooltips="1" connect="1" arrows="1" fold="1" page="1" pageScale="1" pageWidth="1169" pageHeight="827" math="0" shadow="0">
      <root>
        <mxCell id="0" />
        <mxCell id="1" parent="0" />
        <mxCell id="iEpQ5b4tESnnsRQBB0DF-34" style="edgeStyle=orthogonalEdgeStyle;rounded=0;orthogonalLoop=1;jettySize=auto;html=1;exitX=0.5;exitY=1;exitDx=0;exitDy=0;entryX=0.5;entryY=0;entryDx=0;entryDy=0;" parent="1" source="iEpQ5b4tESnnsRQBB0DF-1" target="iEpQ5b4tESnnsRQBB0DF-32" edge="1">
          <mxGeometry relative="1" as="geometry" />
        </mxCell>
        <mxCell id="iEpQ5b4tESnnsRQBB0DF-1" value="Begin" style="rounded=1;whiteSpace=wrap;html=1;" parent="1" vertex="1">
          <mxGeometry x="-779" y="50" width="120" height="60" as="geometry" />
        </mxCell>
        <mxCell id="iEpQ5b4tESnnsRQBB0DF-64" style="edgeStyle=orthogonalEdgeStyle;rounded=0;orthogonalLoop=1;jettySize=auto;html=1;exitX=0.5;exitY=1;exitDx=0;exitDy=0;entryX=0.5;entryY=0;entryDx=0;entryDy=0;" parent="1" source="iEpQ5b4tESnnsRQBB0DF-3" target="iEpQ5b4tESnnsRQBB0DF-35" edge="1">
          <mxGeometry relative="1" as="geometry" />
        </mxCell>
        <mxCell id="iEpQ5b4tESnnsRQBB0DF-3" value="мах_length_elem = 3&lt;br&gt;count = 0" style="rounded=0;whiteSpace=wrap;html=1;" parent="1" vertex="1">
          <mxGeometry x="-789" y="270" width="140" height="60" as="geometry" />
        </mxCell>
        <mxCell id="iEpQ5b4tESnnsRQBB0DF-8" value="Yes" style="edgeStyle=orthogonalEdgeStyle;rounded=0;orthogonalLoop=1;jettySize=auto;html=1;exitX=1;exitY=0.5;exitDx=0;exitDy=0;entryX=0;entryY=0.5;entryDx=0;entryDy=0;" parent="1" source="iEpQ5b4tESnnsRQBB0DF-4" target="iEpQ5b4tESnnsRQBB0DF-6" edge="1">
          <mxGeometry relative="1" as="geometry" />
        </mxCell>
        <mxCell id="Lz58lLkyG3xj5PvRXdKj-1" value="NO" style="edgeStyle=orthogonalEdgeStyle;rounded=0;orthogonalLoop=1;jettySize=auto;html=1;exitX=0.5;exitY=1;exitDx=0;exitDy=0;entryX=0.5;entryY=0;entryDx=0;entryDy=0;" edge="1" parent="1" source="iEpQ5b4tESnnsRQBB0DF-4" target="iEpQ5b4tESnnsRQBB0DF-14">
          <mxGeometry relative="1" as="geometry" />
        </mxCell>
        <mxCell id="iEpQ5b4tESnnsRQBB0DF-4" value="i = 0&lt;br&gt;i &amp;lt; array.Length&lt;br&gt;i ++" style="rhombus;whiteSpace=wrap;html=1;" parent="1" vertex="1">
          <mxGeometry x="-809" y="725" width="180" height="80" as="geometry" />
        </mxCell>
        <mxCell id="iEpQ5b4tESnnsRQBB0DF-9" value="Yes" style="edgeStyle=orthogonalEdgeStyle;rounded=0;orthogonalLoop=1;jettySize=auto;html=1;exitX=1;exitY=0.5;exitDx=0;exitDy=0;entryX=0;entryY=0.5;entryDx=0;entryDy=0;" parent="1" source="iEpQ5b4tESnnsRQBB0DF-6" target="iEpQ5b4tESnnsRQBB0DF-7" edge="1">
          <mxGeometry relative="1" as="geometry" />
        </mxCell>
        <mxCell id="iEpQ5b4tESnnsRQBB0DF-10" value="NO" style="edgeStyle=orthogonalEdgeStyle;rounded=0;orthogonalLoop=1;jettySize=auto;html=1;exitX=0.5;exitY=1;exitDx=0;exitDy=0;entryX=1;entryY=1;entryDx=0;entryDy=0;" parent="1" source="iEpQ5b4tESnnsRQBB0DF-6" target="iEpQ5b4tESnnsRQBB0DF-4" edge="1">
          <mxGeometry relative="1" as="geometry">
            <Array as="points">
              <mxPoint x="-469" y="825" />
              <mxPoint x="-674" y="825" />
            </Array>
          </mxGeometry>
        </mxCell>
        <mxCell id="iEpQ5b4tESnnsRQBB0DF-6" value="array[i].Length &amp;lt;= 3" style="rhombus;whiteSpace=wrap;html=1;" parent="1" vertex="1">
          <mxGeometry x="-559" y="725" width="180" height="80" as="geometry" />
        </mxCell>
        <mxCell id="iEpQ5b4tESnnsRQBB0DF-11" style="edgeStyle=orthogonalEdgeStyle;rounded=0;orthogonalLoop=1;jettySize=auto;html=1;exitX=0.5;exitY=1;exitDx=0;exitDy=0;entryX=1;entryY=1;entryDx=0;entryDy=0;" parent="1" source="iEpQ5b4tESnnsRQBB0DF-7" target="iEpQ5b4tESnnsRQBB0DF-4" edge="1">
          <mxGeometry relative="1" as="geometry">
            <Array as="points">
              <mxPoint x="-259" y="865" />
              <mxPoint x="-674" y="865" />
            </Array>
          </mxGeometry>
        </mxCell>
        <mxCell id="iEpQ5b4tESnnsRQBB0DF-7" value="count ++" style="rounded=0;whiteSpace=wrap;html=1;" parent="1" vertex="1">
          <mxGeometry x="-319" y="735" width="120" height="60" as="geometry" />
        </mxCell>
        <mxCell id="Lz58lLkyG3xj5PvRXdKj-2" style="edgeStyle=orthogonalEdgeStyle;rounded=0;orthogonalLoop=1;jettySize=auto;html=1;exitX=0.5;exitY=1;exitDx=0;exitDy=0;entryX=0.5;entryY=0;entryDx=0;entryDy=0;" edge="1" parent="1" source="iEpQ5b4tESnnsRQBB0DF-14" target="iEpQ5b4tESnnsRQBB0DF-16">
          <mxGeometry relative="1" as="geometry" />
        </mxCell>
        <mxCell id="iEpQ5b4tESnnsRQBB0DF-14" value="final_array[] = new str[count]" style="rounded=0;whiteSpace=wrap;html=1;" parent="1" vertex="1">
          <mxGeometry x="-799" y="890" width="160" height="60" as="geometry" />
        </mxCell>
        <mxCell id="iEpQ5b4tESnnsRQBB0DF-45" value="NO" style="edgeStyle=orthogonalEdgeStyle;rounded=0;orthogonalLoop=1;jettySize=auto;html=1;exitX=0;exitY=0.5;exitDx=0;exitDy=0;entryX=1;entryY=0.5;entryDx=0;entryDy=0;" parent="1" source="iEpQ5b4tESnnsRQBB0DF-16" target="iEpQ5b4tESnnsRQBB0DF-44" edge="1">
          <mxGeometry relative="1" as="geometry" />
        </mxCell>
        <mxCell id="Lz58lLkyG3xj5PvRXdKj-5" value="Yes" style="edgeStyle=orthogonalEdgeStyle;rounded=0;orthogonalLoop=1;jettySize=auto;html=1;exitX=0.5;exitY=1;exitDx=0;exitDy=0;entryX=0.5;entryY=0;entryDx=0;entryDy=0;" edge="1" parent="1" source="iEpQ5b4tESnnsRQBB0DF-16" target="Lz58lLkyG3xj5PvRXdKj-4">
          <mxGeometry relative="1" as="geometry" />
        </mxCell>
        <mxCell id="iEpQ5b4tESnnsRQBB0DF-16" value="count != 0" style="rhombus;whiteSpace=wrap;html=1;" parent="1" vertex="1">
          <mxGeometry x="-803" y="1010" width="168" height="80" as="geometry" />
        </mxCell>
        <mxCell id="iEpQ5b4tESnnsRQBB0DF-48" value="Yes" style="edgeStyle=orthogonalEdgeStyle;rounded=0;orthogonalLoop=1;jettySize=auto;html=1;exitX=1;exitY=0.5;exitDx=0;exitDy=0;entryX=0;entryY=0.5;entryDx=0;entryDy=0;" parent="1" source="iEpQ5b4tESnnsRQBB0DF-19" target="iEpQ5b4tESnnsRQBB0DF-21" edge="1">
          <mxGeometry relative="1" as="geometry" />
        </mxCell>
        <mxCell id="iEpQ5b4tESnnsRQBB0DF-52" value="NO" style="edgeStyle=orthogonalEdgeStyle;rounded=0;orthogonalLoop=1;jettySize=auto;html=1;exitX=0;exitY=0.5;exitDx=0;exitDy=0;entryX=1;entryY=0.5;entryDx=0;entryDy=0;" parent="1" source="iEpQ5b4tESnnsRQBB0DF-19" target="iEpQ5b4tESnnsRQBB0DF-29" edge="1">
          <mxGeometry relative="1" as="geometry" />
        </mxCell>
        <mxCell id="iEpQ5b4tESnnsRQBB0DF-19" value="i = 0&lt;br style=&quot;border-color: var(--border-color);&quot;&gt;i &amp;lt; final_array.Length&lt;br style=&quot;border-color: var(--border-color);&quot;&gt;i ++" style="rhombus;whiteSpace=wrap;html=1;" parent="1" vertex="1">
          <mxGeometry x="-803" y="1240" width="168" height="80" as="geometry" />
        </mxCell>
        <mxCell id="iEpQ5b4tESnnsRQBB0DF-49" value="Yes" style="edgeStyle=orthogonalEdgeStyle;rounded=0;orthogonalLoop=1;jettySize=auto;html=1;exitX=1;exitY=0.5;exitDx=0;exitDy=0;entryX=0;entryY=0.5;entryDx=0;entryDy=0;" parent="1" source="iEpQ5b4tESnnsRQBB0DF-21" target="iEpQ5b4tESnnsRQBB0DF-22" edge="1">
          <mxGeometry relative="1" as="geometry" />
        </mxCell>
        <mxCell id="iEpQ5b4tESnnsRQBB0DF-50" value="NO" style="edgeStyle=orthogonalEdgeStyle;rounded=0;orthogonalLoop=1;jettySize=auto;html=1;exitX=0.5;exitY=1;exitDx=0;exitDy=0;entryX=1;entryY=1;entryDx=0;entryDy=0;" parent="1" source="iEpQ5b4tESnnsRQBB0DF-21" target="iEpQ5b4tESnnsRQBB0DF-19" edge="1">
          <mxGeometry relative="1" as="geometry">
            <Array as="points">
              <mxPoint x="-469" y="1340" />
              <mxPoint x="-677" y="1340" />
            </Array>
          </mxGeometry>
        </mxCell>
        <mxCell id="iEpQ5b4tESnnsRQBB0DF-21" value="array[i].Length &amp;lt;= 3" style="rhombus;whiteSpace=wrap;html=1;" parent="1" vertex="1">
          <mxGeometry x="-559" y="1240" width="180" height="80" as="geometry" />
        </mxCell>
        <mxCell id="iEpQ5b4tESnnsRQBB0DF-51" style="edgeStyle=orthogonalEdgeStyle;rounded=0;orthogonalLoop=1;jettySize=auto;html=1;exitX=0.5;exitY=1;exitDx=0;exitDy=0;entryX=1;entryY=1;entryDx=0;entryDy=0;" parent="1" source="iEpQ5b4tESnnsRQBB0DF-22" target="iEpQ5b4tESnnsRQBB0DF-19" edge="1">
          <mxGeometry relative="1" as="geometry">
            <Array as="points">
              <mxPoint x="-204" y="1380" />
              <mxPoint x="-677" y="1380" />
            </Array>
          </mxGeometry>
        </mxCell>
        <mxCell id="iEpQ5b4tESnnsRQBB0DF-22" value="final_array[index] = array[i]&lt;br&gt;index ++" style="rounded=0;whiteSpace=wrap;html=1;" parent="1" vertex="1">
          <mxGeometry x="-319" y="1250" width="230" height="60" as="geometry" />
        </mxCell>
        <mxCell id="iEpQ5b4tESnnsRQBB0DF-27" value="End" style="rounded=1;whiteSpace=wrap;html=1;" parent="1" vertex="1">
          <mxGeometry x="-559" y="150" width="120" height="60" as="geometry" />
        </mxCell>
        <mxCell id="iEpQ5b4tESnnsRQBB0DF-53" style="edgeStyle=orthogonalEdgeStyle;rounded=0;orthogonalLoop=1;jettySize=auto;html=1;exitX=0;exitY=0.5;exitDx=0;exitDy=0;entryX=0;entryY=0.5;entryDx=0;entryDy=0;" parent="1" source="iEpQ5b4tESnnsRQBB0DF-29" target="iEpQ5b4tESnnsRQBB0DF-32" edge="1">
          <mxGeometry relative="1" as="geometry">
            <Array as="points">
              <mxPoint x="-1010" y="1280" />
              <mxPoint x="-1010" y="180" />
            </Array>
          </mxGeometry>
        </mxCell>
        <mxCell id="iEpQ5b4tESnnsRQBB0DF-29" value="print: final_array" style="rounded=0;whiteSpace=wrap;html=1;" parent="1" vertex="1">
          <mxGeometry x="-959" y="1250" width="120" height="60" as="geometry" />
        </mxCell>
        <mxCell id="iEpQ5b4tESnnsRQBB0DF-33" value="NO" style="edgeStyle=orthogonalEdgeStyle;rounded=0;orthogonalLoop=1;jettySize=auto;html=1;exitX=1;exitY=0.5;exitDx=0;exitDy=0;entryX=0;entryY=0.5;entryDx=0;entryDy=0;" parent="1" source="iEpQ5b4tESnnsRQBB0DF-32" target="iEpQ5b4tESnnsRQBB0DF-27" edge="1">
          <mxGeometry relative="1" as="geometry" />
        </mxCell>
        <mxCell id="iEpQ5b4tESnnsRQBB0DF-63" value="Yes" style="edgeStyle=orthogonalEdgeStyle;rounded=0;orthogonalLoop=1;jettySize=auto;html=1;exitX=0.5;exitY=1;exitDx=0;exitDy=0;entryX=0.5;entryY=0;entryDx=0;entryDy=0;" parent="1" source="iEpQ5b4tESnnsRQBB0DF-32" target="iEpQ5b4tESnnsRQBB0DF-3" edge="1">
          <mxGeometry relative="1" as="geometry" />
        </mxCell>
        <mxCell id="iEpQ5b4tESnnsRQBB0DF-32" value="entry" style="rhombus;whiteSpace=wrap;html=1;" parent="1" vertex="1">
          <mxGeometry x="-809" y="140" width="180" height="80" as="geometry" />
        </mxCell>
        <mxCell id="iEpQ5b4tESnnsRQBB0DF-58" style="edgeStyle=orthogonalEdgeStyle;rounded=0;orthogonalLoop=1;jettySize=auto;html=1;exitX=0.5;exitY=1;exitDx=0;exitDy=0;entryX=0.5;entryY=0;entryDx=0;entryDy=0;" parent="1" source="iEpQ5b4tESnnsRQBB0DF-35" target="iEpQ5b4tESnnsRQBB0DF-54" edge="1">
          <mxGeometry relative="1" as="geometry" />
        </mxCell>
        <mxCell id="iEpQ5b4tESnnsRQBB0DF-35" value="input length_array&lt;br&gt;(0, 10)" style="rounded=0;whiteSpace=wrap;html=1;" parent="1" vertex="1">
          <mxGeometry x="-789" y="390" width="140" height="60" as="geometry" />
        </mxCell>
        <mxCell id="iEpQ5b4tESnnsRQBB0DF-46" style="edgeStyle=orthogonalEdgeStyle;rounded=0;orthogonalLoop=1;jettySize=auto;html=1;exitX=0.5;exitY=0;exitDx=0;exitDy=0;entryX=0;entryY=0.5;entryDx=0;entryDy=0;" parent="1" source="iEpQ5b4tESnnsRQBB0DF-44" target="iEpQ5b4tESnnsRQBB0DF-32" edge="1">
          <mxGeometry relative="1" as="geometry">
            <Array as="points">
              <mxPoint x="-899" y="180" />
            </Array>
          </mxGeometry>
        </mxCell>
        <mxCell id="iEpQ5b4tESnnsRQBB0DF-44" value="print: final_array" style="rounded=0;whiteSpace=wrap;html=1;" parent="1" vertex="1">
          <mxGeometry x="-959" y="1020" width="120" height="60" as="geometry" />
        </mxCell>
        <mxCell id="iEpQ5b4tESnnsRQBB0DF-59" value="NO" style="edgeStyle=orthogonalEdgeStyle;rounded=0;orthogonalLoop=1;jettySize=auto;html=1;exitX=1;exitY=0.5;exitDx=0;exitDy=0;entryX=0;entryY=0.5;entryDx=0;entryDy=0;" parent="1" source="iEpQ5b4tESnnsRQBB0DF-54" target="iEpQ5b4tESnnsRQBB0DF-56" edge="1">
          <mxGeometry relative="1" as="geometry" />
        </mxCell>
        <mxCell id="iEpQ5b4tESnnsRQBB0DF-61" value="Yes" style="edgeStyle=orthogonalEdgeStyle;rounded=0;orthogonalLoop=1;jettySize=auto;html=1;exitX=0.5;exitY=1;exitDx=0;exitDy=0;entryX=0.5;entryY=0;entryDx=0;entryDy=0;" parent="1" source="iEpQ5b4tESnnsRQBB0DF-54" target="iEpQ5b4tESnnsRQBB0DF-55" edge="1">
          <mxGeometry relative="1" as="geometry" />
        </mxCell>
        <mxCell id="iEpQ5b4tESnnsRQBB0DF-54" value="0 &amp;lt; length_array &amp;lt; 10" style="rhombus;whiteSpace=wrap;html=1;" parent="1" vertex="1">
          <mxGeometry x="-799" y="490" width="160" height="80" as="geometry" />
        </mxCell>
        <mxCell id="iEpQ5b4tESnnsRQBB0DF-62" style="edgeStyle=orthogonalEdgeStyle;rounded=0;orthogonalLoop=1;jettySize=auto;html=1;exitX=0.5;exitY=1;exitDx=0;exitDy=0;entryX=0.5;entryY=0;entryDx=0;entryDy=0;" parent="1" source="iEpQ5b4tESnnsRQBB0DF-55" target="iEpQ5b4tESnnsRQBB0DF-4" edge="1">
          <mxGeometry relative="1" as="geometry" />
        </mxCell>
        <mxCell id="iEpQ5b4tESnnsRQBB0DF-55" value="input values of array" style="rounded=0;whiteSpace=wrap;html=1;" parent="1" vertex="1">
          <mxGeometry x="-779" y="620" width="120" height="60" as="geometry" />
        </mxCell>
        <mxCell id="iEpQ5b4tESnnsRQBB0DF-60" style="edgeStyle=orthogonalEdgeStyle;rounded=0;orthogonalLoop=1;jettySize=auto;html=1;exitX=0.5;exitY=0;exitDx=0;exitDy=0;entryX=1;entryY=0.5;entryDx=0;entryDy=0;" parent="1" source="iEpQ5b4tESnnsRQBB0DF-56" target="iEpQ5b4tESnnsRQBB0DF-35" edge="1">
          <mxGeometry relative="1" as="geometry" />
        </mxCell>
        <mxCell id="iEpQ5b4tESnnsRQBB0DF-56" value="print: input error" style="rounded=0;whiteSpace=wrap;html=1;" parent="1" vertex="1">
          <mxGeometry x="-570" y="500" width="120" height="60" as="geometry" />
        </mxCell>
        <mxCell id="Lz58lLkyG3xj5PvRXdKj-7" style="edgeStyle=orthogonalEdgeStyle;rounded=0;orthogonalLoop=1;jettySize=auto;html=1;exitX=0.5;exitY=1;exitDx=0;exitDy=0;entryX=0.5;entryY=0;entryDx=0;entryDy=0;" edge="1" parent="1" source="Lz58lLkyG3xj5PvRXdKj-4" target="iEpQ5b4tESnnsRQBB0DF-19">
          <mxGeometry relative="1" as="geometry" />
        </mxCell>
        <mxCell id="Lz58lLkyG3xj5PvRXdKj-4" value="index = 0" style="rounded=0;whiteSpace=wrap;html=1;" vertex="1" parent="1">
          <mxGeometry x="-779" y="1130" width="120" height="60" as="geometry" />
        </mxCell>
      </root>
    </mxGraphModel>
  </diagram>
</mxfile>
